<?xml version="1.0" encoding="utf-8"?>
<!-- Generator: Adobe Illustrator 28.1.0, SVG Export Plug-In . SVG Version: 6.00 Build 0)  -->
<svg version="1.1" id="Camada_1" xmlns="http://www.w3.org/2000/svg" xmlns:xlink="http://www.w3.org/1999/xlink" x="0px" y="0px"
	 viewBox="0 0 1091.7 1005.2" style="enable-background:new 0 0 1091.7 1005.2;" xml:space="preserve">
<style type="text/css">
	.st0{fill:#020203;}
	.st1{fill:#FFFFFF;}
	.st2{fill:#1F104F;}
	.st3{fill:#1F104F;stroke:#FFFFFF;stroke-miterlimit:10;}
</style>
<g>
	<path class="st2" d="M478.8,599.2c43.9,34.5,81.4,64.1,83.3,65.8c3.9,3.4,5.9,4.7,9.9,6.3c10.7,4.4,23.6,3.5,34.7-2.4
		c9.1-4.9,14.3-10.5,17.9-19.3l2-4.9l2.8,1.2c5.1,2.3,11.8,3.5,17.9,3.2c9.2-0.5,19.1-4.6,26.2-10.8c4.7-4.1,9-10.5,10.6-16l0.8-2.7
		l1.7,0.8c7.6,3.9,16.8,4.8,26.3,2.7c3.7-0.8,10.3-3.6,13.6-5.6c13.1-8.2,19.4-21.5,17.1-36.2c-0.2-1.5-1.9-10.5-3.8-20.1
		c-3-15.6-16.8-88.7-28.9-153.3c-3.7-19.5-4.7-24.6-5.4-26c-0.8-1.6-5.8-5.4-80.3-62.7c-62.4-48-79.8-61.2-81-61.5
		c-2.2-0.6-5,0.3-6.4,2.2c-2,2.6-1.5,6.3,1.1,8.5c0.7,0.6,35.8,27.6,78.2,60.2c42.3,32.5,77.1,59.4,77.3,59.6
		c0.2,0.2,4,19.9,8.5,43.8c4.5,23.8,10.4,55,13.1,69.2c2.7,14.2,6.9,36.8,9.4,50.1s5,26.4,5.5,29c1.3,6.7,1.2,10.1-0.8,15
		c-2.3,5.6-5.6,9.2-11.7,12.6c-5.3,3-10.7,4.2-16.7,3.9c-7-0.3-12.7-3.2-16-7.8l-1.3-1.9l-4.6-24.3c-2.5-13.4-7.6-40.1-11.2-59.5
		c-14.6-77.3-18.6-98.5-19.7-104.4c-0.7-3.9-1.4-6.7-1.8-7.4c-0.5-0.9-20.3-16.3-79.9-62.1c-43.6-33.5-79.6-61.1-80-61.4
		c-0.4-0.3-1.4-0.6-2.3-0.6c-2-0.2-4.9,1.1-5.8,2.7c-1.5,2.6-1.2,5.7,0.8,7.6c0.7,0.6,36,27.9,78.6,60.6
		c52.1,40.1,77.5,59.8,77.7,60.3c0.2,0.5,3.5,18,7.5,39.1c3.9,21,12.1,64.3,18.2,96.1c6,31.8,11.1,59.1,11.3,60.7
		c1,8.3-2.6,15.9-10.1,21.4c-2.7,2-9,4.7-12.5,5.4c-7.2,1.4-14.2,0.1-19.3-3.4c-2.2-1.5-4.7-4.5-5.2-6.4c-0.4-1.3-3.3-16.7-16-84
		c-1-5.5-2.1-10.6-2.3-11.2c-0.6-1.3-2.4-2.9-3.8-3.3c-3.5-0.9-7.2,1.4-7.8,4.8c-0.1,0.8,1.8,11.5,5.6,31.9
		c3.2,16.9,6.9,36.7,8.3,44.1c1.4,7.4,3.1,16.3,3.8,19.7c1.6,8.4,1.5,11.4-0.6,16.5c-2.3,5.6-5.6,9.2-11.6,12.6
		c-3.3,1.9-7.3,3.2-11.2,3.8c-3.1,0.5-8.6,0.1-11.4-0.7c-4.2-1.2-8.9-4.4-9.8-6.6c-0.2-0.5-1.6-7.1-3-14.5
		c-31.3-162-35.3-182.1-35.9-183.2c-0.5-0.9-19.9-16-79.9-62.1c-43.6-33.5-79.5-61.1-80-61.4c-1.2-0.8-3.6-0.9-5.2-0.3
		c-2.4,1-3.7,2.7-3.9,5.1c0,0.5,2.3,13.7,5.3,29.2c2.9,15.5,8.7,46.2,12.8,68.1s10,53,13.1,69.1c3.1,16.4,5.8,29.8,6.1,30.7
		C399,536.3,403.4,539.9,478.8,599.2z"/>
	<path class="st2" d="M421.6,318c0.5,0.4,35.8,27.6,78.4,60.4l77.5,59.6l0.7,3.3c0.4,1.8,2.2,11.2,4,21c3,16,3.4,17.8,4.2,18.7
		c3.7,4.4,10.5,2.4,10.9-3.2c0.1-2-7.7-43.6-8.6-45.8c-0.4-0.9-1.2-1.8-2.3-2.8c-1-0.8-36.8-28.4-79.7-61.4
		c-61.6-47.3-78.4-60.1-79.6-60.4c-2.2-0.6-4.9,0.3-6.4,2.2C418.9,312.1,419.3,316.1,421.6,318z"/>
	<path class="st1" d="M488.6,515.1c-0.9-3-2.3-5.6-4.4-7.8c-2.1-2.2-4.5-4.2-7.2-6c-2.7-1.7-5.5-3.3-8.3-4.8s-5.4-2.8-7.7-4
		c-2.3-1.2-4.1-2.6-5.4-3.9c-1.3-1.4-1.7-2.9-1.3-4.6c0.3-1.1,1-2.1,2-2.9s2.5-1.2,4.5-1.4c1.9-0.2,4.3,0.1,7.2,0.9
		c1.1,0.3,2.3,0.7,3.4,1.1c4-4.3,7.9-8.7,12.4-12.5c0,0,0,0,0,0c-0.4-0.3-1.5-1.2-3.3-1.8c-0.4-0.1-0.4-0.1-1-0.3
		c-2-0.6-2.8-1.2-4.5-1.9c0,0-0.8-0.3-2.5-0.8c-7.2-1.9-13.6-2.5-19-1.6c-5.4,0.9-9.8,2.8-13.2,5.8s-5.6,6.6-6.8,11
		c-1,3.9-1.2,7.4-0.4,10.4c0.8,3,2.2,5.6,4.3,7.9c2,2.3,4.4,4.3,7.2,6.1c2.8,1.8,5.5,3.4,8.3,4.8c2.8,1.4,5.3,2.7,7.6,4.1
		c2.3,1.3,4.1,2.7,5.4,4c1.3,1.4,1.7,2.8,1.3,4.5c-0.3,1.3-1,2.2-2.1,3c-1,0.7-2.5,1.1-4.4,1.1c-1.9,0-4.3-0.3-7.2-1.1
		c-8.2-2.2-11.5-6.3-12.4-5.5c-0.6,0.5-0.1,2.9,5.3,11.4l-26.4-6c2.8,3.2,6.8,6.4,12,9.4c5.2,3,10.9,5.3,17,7
		c7.3,2,13.7,2.5,19.1,1.6c5.4-0.9,9.9-2.8,13.2-5.8c3.4-3,5.7-6.6,6.8-10.9C489.4,521.6,489.4,518.1,488.6,515.1z"/>
	<path class="st3" d="M603.9,531.8c-4.3,1-8.4,1.2-12.3,0.7c-3.9-0.5-7.5-1.7-10.7-3.6c-3.2-1.9-6-4.4-8.3-7.5
		c-2.3-3.1-3.9-6.7-4.8-10.8c-1-4.1-1.1-8.1-0.4-11.9s2.1-7.2,4.2-10.4c2.1-3.1,4.8-5.8,8.2-8s7.2-3.8,11.6-4.8
		c5-1.2,9.8-1.4,14.2-0.6c4.4,0.8,8.3,2.5,11.6,5l-7.7,11c-2.3-1.6-4.7-2.7-7-3.2c-2.4-0.5-4.8-0.4-7.5,0.2
		c-2.3,0.5-4.3,1.4-6.1,2.5c-1.7,1.2-3.1,2.6-4.1,4.2c-1,1.7-1.7,3.5-2,5.6c-0.3,2.1-0.2,4.3,0.3,6.6c0.5,2.3,1.4,4.3,2.6,6
		c1.2,1.7,2.6,3.1,4.2,4.2c1.7,1,3.5,1.7,5.5,2s4.2,0.2,6.5-0.3c2.3-0.5,4.4-1.4,6.4-2.6c2-1.2,3.9-3,5.7-5.3l11,8.7
		c-2.6,2.9-5.8,5.5-9.6,7.6C611.6,529.4,607.8,530.9,603.9,531.8z M625,519.7l-14,1.1l-4.7-20.4l13.6-3.1L625,519.7z"/>
	<g>
		<path class="st3" d="M657.7,502.6l12.7-61.6l15.7-3.4l37,50.9c-3.7,0.2-7.4,0.5-11.1,0.7c-11.8-13.8-23.5-27.6-35.3-41.4l6.3-1.4
			c-6.2,18.3-12.5,36.5-18.7,54.8C662.1,501.6,659.9,502.1,657.7,502.6z M668.9,488.6l1.6-12.5l27.5-5.9l6.6,10.8L668.9,488.6z"/>
	</g>
</g>
</svg>
